<?xml version="1.0" encoding="UTF-8" standalone="no"?>
<svg
   xmlns:dc="http://purl.org/dc/elements/1.1/"
   xmlns:cc="http://creativecommons.org/ns#"
   xmlns:rdf="http://www.w3.org/1999/02/22-rdf-syntax-ns#"
   xmlns:svg="http://www.w3.org/2000/svg"
   xmlns="http://www.w3.org/2000/svg"
   xmlns:sodipodi="http://sodipodi.sourceforge.net/DTD/sodipodi-0.dtd"
   xmlns:inkscape="http://www.inkscape.org/namespaces/inkscape"
   width="238.32953mm"
   height="238.32652mm"
   viewBox="0 0 238.32953 238.32652"
   version="1.1"
   id="svg989"
   inkscape:version="1.0.1 (1.0.1+r74)"
   sodipodi:docname="setting.svg"
   inkscape:export-filename="settings.png"
   inkscape:export-xdpi="3.7301764"
   inkscape:export-ydpi="3.7301764">
  <defs
     id="defs983" />
  <sodipodi:namedview
     id="base"
     pagecolor="#ffffff"
     bordercolor="#666666"
     borderopacity="1.0"
     inkscape:pageopacity="0.0"
     inkscape:pageshadow="2"
     inkscape:zoom="0.35"
     inkscape:cx="-58.184901"
     inkscape:cy="118.72563"
     inkscape:document-units="mm"
     inkscape:current-layer="layer1"
     showgrid="false"
     inkscape:window-width="2560"
     inkscape:window-height="1321"
     inkscape:window-x="2560"
     inkscape:window-y="27"
     inkscape:window-maximized="1"
     fit-margin-top="0"
     fit-margin-left="0"
     fit-margin-right="0"
     fit-margin-bottom="0"
     inkscape:document-rotation="0" />
  <metadata
     id="metadata986">
    <rdf:RDF>
      <cc:Work
         rdf:about="">
        <dc:format>image/svg+xml</dc:format>
        <dc:type
           rdf:resource="http://purl.org/dc/dcmitype/StillImage" />
        <dc:title />
      </cc:Work>
    </rdf:RDF>
  </metadata>
  <g
     inkscape:label="レイヤー 1"
     inkscape:groupmode="layer"
     id="layer1"
     transform="translate(11.441554,-34.582047)">
    <path
       style="opacity:0.98000004;fill:#000000;fill-opacity:1;stroke:#000000;stroke-width:0;stroke-linecap:square;stroke-linejoin:round;stroke-miterlimit:4;stroke-dasharray:none;stroke-opacity:1;paint-order:normal"
       d="m 96.991526,34.582047 a 119.74619,119.74619 0 0 0 -22.43424,4.16297 l 2.26248,29.63948 a 90.944234,90.944234 0 0 0 -16.3537,7.83923 l -21.6107,-20.26678 a 119.74619,119.74619 0 0 0 -17.34818,14.867 l 16.67296,24.388022 a 90.944234,90.944234 0 0 0 -10.27819,15.015321 l -28.74604967,-6.72057 a 119.74619,119.74619 0 0 0 -7.56071003,21.5579 L 18.262787,137.8597 a 90.944234,90.944234 0 0 0 -1.50329,15.98014 90.944234,90.944234 0 0 0 0.10056,2.11667 l -28.301611,8.56172 a 119.74619,119.74619 0 0 0 4.1881003,22.4634 l 29.5328997,-2.25745 a 90.944234,90.944234 0 0 0 7.83924,16.35974 l -20.1838293,21.5222 a 119.74619,119.74619 0 0 0 14.8790693,17.35975 l 24.28695,-16.6081 a 90.944234,90.944234 0 0 0 15.01532,10.27869 l -6.6904,28.63897 a 119.74619,119.74619 0 0 0 21.5755,7.5783 l 12.75385,-26.57257 a 90.944234,90.944234 0 0 0 15.980144,1.50329 90.944234,90.944234 0 0 0 2.11165,-0.10055 l 8.54411,28.22467 a 119.74619,119.74619 0 0 0 22.47547,-4.16296 l -2.25242,-29.4801 a 90.944234,90.944234 0 0 0 16.35923,-7.83924 l 21.50461,20.16674 a 119.74619,119.74619 0 0 0 17.38288,-14.86198 l -16.61414,-24.29249 a 90.944234,90.944234 0 0 0 10.28472,-15.01531 l 28.66913,6.70146 a 119.74619,119.74619 0 0 0 7.5959,-21.56344 L 197.1761,169.78378 a 90.944234,90.944234 0 0 0 1.49827,-15.96858 90.944234,90.944234 0 0 0 -0.10056,-2.12673 l 28.31417,-8.56776 a 119.74619,119.74619 0 0 0 -4.14285,-22.45183 l -29.58669,2.25745 a 90.944234,90.944234 0 0 0 -7.84527,-16.35923 l 20.25522,-21.593103 a 119.74619,119.74619 0 0 0 -14.8494,-17.36025 l -24.38802,16.67296 a 90.944234,90.944234 0 0 0 -15.01532,-10.27819 l 6.7256,-28.77522 a 119.74619,119.74619 0 0 0 -21.53981,-7.58483 l -12.82473,26.71485 a 90.944234,90.944234 0 0 0 -15.96857,-1.49324 90.944234,90.944234 0 0 0 -2.1217,0.0503 z m 10.716614,72.264093 a 46.990792,46.990792 0 0 1 46.98766,46.9937 46.990792,46.990792 0 0 1 -46.98766,46.98766 46.990792,46.990792 0 0 1 -46.993704,-46.98766 46.990792,46.990792 0 0 1 46.993704,-46.9937 z"
       id="path4731"
       inkscape:connector-curvature="0" />
  </g>
</svg>
